<?xml version="1.0" encoding="utf-8"?>
<!-- Generator: Adobe Illustrator 27.0.0, SVG Export Plug-In . SVG Version: 6.00 Build 0)  -->
<svg version="1.1" id="Layer_1" xmlns="http://www.w3.org/2000/svg" xmlns:xlink="http://www.w3.org/1999/xlink" x="0px" y="0px"
	 viewBox="0 0 800 800" style="enable-background:new 0 0 800 800;" xml:space="preserve">
<style type="text/css">
	.st0{fill:#D0D7E3;}
</style>
<g>
	<path class="st0" d="M787,102.5H13c-7.2,0-13,5.8-13,13v569.2c0,7.2,5.8,13,13,13H787c7.2,0,13-5.8,13-13V115.4
		C800,108.3,794.2,102.5,787,102.5z M774.1,128.4v95.3H25.9v-95.3H774.1z M25.9,671.6v-422h748.2v422L25.9,671.6L25.9,671.6z"/>
	<path class="st0" d="M254.7,293.6h-152c-7.2,0-13,5.8-13,13s5.8,13,13,13h152c7.2,0,13-5.8,13-13S261.9,293.6,254.7,293.6z"/>
	<path class="st0" d="M254.7,355.2h-152c-7.2,0-13,5.8-13,13s5.8,13,13,13h152c7.2,0,13-5.8,13-13S261.9,355.2,254.7,355.2z"/>
	<path class="st0" d="M254.7,416.8h-152c-7.2,0-13,5.8-13,13s5.8,13,13,13h152c7.2,0,13-5.8,13-13S261.9,416.8,254.7,416.8
		L254.7,416.8z"/>
	<path class="st0" d="M254.7,478.5h-152c-7.2,0-13,5.8-13,13s5.8,13,13,13h152c7.2,0,13-5.8,13-13S261.9,478.5,254.7,478.5z"/>
	<path class="st0" d="M254.7,540.1h-152c-7.2,0-13,5.8-13,13s5.8,13,13,13h152c7.2,0,13-5.8,13-13S261.9,540.1,254.7,540.1z"/>
	<path class="st0" d="M254.7,601.7h-152c-7.2,0-13,5.8-13,13s5.8,13,13,13h152c7.2,0,13-5.8,13-13S261.9,601.7,254.7,601.7z"/>
	<path class="st0" d="M476,478.5H324c-7.2,0-13,5.8-13,13s5.8,13,13,13h152c7.2,0,13-5.8,13-13S483.2,478.5,476,478.5z"/>
	<path class="st0" d="M476,540.1H324c-7.2,0-13,5.8-13,13s5.8,13,13,13h152c7.2,0,13-5.8,13-13S483.2,540.1,476,540.1z"/>
	<path class="st0" d="M476,601.7H324c-7.2,0-13,5.8-13,13s5.8,13,13,13h152c7.2,0,13-5.8,13-13S483.2,601.7,476,601.7z"/>
	<path class="st0" d="M476,293.6H324c-7.2,0-13,5.8-13,13v123.3c0,7.2,5.8,13,13,13h152c7.2,0,13-5.8,13-13V306.5
		C489,299.4,483.2,293.6,476,293.6L476,293.6z M463.1,416.8H336.9v-97.4h126.1V416.8z"/>
	<path class="st0" d="M697.3,416.8h-152c-7.2,0-13,5.8-13,13s5.8,13,13,13h152c7.2,0,13-5.8,13-13S704.5,416.8,697.3,416.8
		L697.3,416.8z"/>
	<path class="st0" d="M697.3,355.2h-152c-7.2,0-13,5.8-13,13s5.8,13,13,13h152c7.2,0,13-5.8,13-13S704.5,355.2,697.3,355.2z"/>
	<path class="st0" d="M697.3,293.6h-152c-7.2,0-13,5.8-13,13s5.8,13,13,13h152c7.2,0,13-5.8,13-13S704.5,293.6,697.3,293.6z"/>
	<path class="st0" d="M697.3,478.5h-152c-7.2,0-13,5.8-13,13v123.3c0,7.2,5.8,13,13,13h152c7.2,0,13-5.8,13-13V491.4
		C710.3,484.3,704.5,478.5,697.3,478.5z M684.4,601.7H558.3v-97.4h126.1V601.7z"/>
	<path class="st0" d="M183.4,213.2h551.1c7.2,0,13-5.8,13-13v-48.4c0-7.2-5.8-13-13-13H183.4c-7.2,0-13,5.8-13,13v48.4
		C170.5,207.4,176.3,213.2,183.4,213.2L183.4,213.2z M196.4,164.8h525.2v22.5H196.4L196.4,164.8L196.4,164.8z"/>
	<path class="st0" d="M55.9,189c3.4,0,6.8-1.4,9.2-3.8c2.4-2.4,3.8-5.8,3.8-9.2c0-3.4-1.4-6.8-3.8-9.2c-2.4-2.4-5.8-3.8-9.2-3.8
		c-3.4,0-6.8,1.4-9.2,3.8c-2.4,2.4-3.8,5.8-3.8,9.2c0,3.4,1.4,6.8,3.8,9.2C49.2,187.6,52.5,189,55.9,189z"/>
	<path class="st0" d="M97.8,189c3.4,0,6.8-1.4,9.2-3.8c2.4-2.4,3.8-5.8,3.8-9.2c0-3.4-1.4-6.8-3.8-9.2c-2.4-2.4-5.8-3.8-9.2-3.8
		c-3.4,0-6.7,1.4-9.2,3.8c-2.4,2.4-3.8,5.8-3.8,9.2c0,3.4,1.4,6.8,3.8,9.2C91,187.6,94.4,189,97.8,189z"/>
	<path class="st0" d="M139.7,189c3.4,0,6.8-1.4,9.2-3.8c2.4-2.4,3.8-5.8,3.8-9.2c0-3.4-1.4-6.8-3.8-9.2c-2.4-2.4-5.7-3.8-9.2-3.8
		c-3.4,0-6.8,1.4-9.2,3.8c-2.4,2.4-3.8,5.8-3.8,9.2c0,3.4,1.4,6.7,3.8,9.2C132.9,187.6,136.3,189,139.7,189z"/>
</g>
</svg>
