<?xml version="1.0" encoding="utf-8"?>
<!-- Generator: Adobe Illustrator 27.0.0, SVG Export Plug-In . SVG Version: 6.00 Build 0)  -->
<svg version="1.1" id="Layer_1" xmlns="http://www.w3.org/2000/svg" xmlns:xlink="http://www.w3.org/1999/xlink" x="0px" y="0px"
	 viewBox="0 0 256 256" style="enable-background:new 0 0 256 256;" xml:space="preserve">
<style type="text/css">
	.st0{fill:#FFFFFF;}
</style>
<ellipse class="st0" cx="127.5" cy="128" rx="113.5" ry="114"/>
<g transform="translate(1.4065934065934016 1.4065934065934016) scale(2.81 2.81)">
	<path d="M70,43h-7.5c-0.4-3.4-1.7-6.4-3.7-9l5.3-5.3c0.8-0.8,0.8-2,0-2.8c-0.8-0.8-2-0.8-2.8,0L56,31.2c-2.5-2-5.6-3.3-9-3.7V20
		c0-1.1-0.9-2-2-2s-2,0.9-2,2v7.5c-3.4,0.4-6.4,1.7-9,3.7l-5.3-5.3c-0.8-0.8-2-0.8-2.8,0c-0.8,0.8-0.8,2,0,2.8l5.3,5.3
		c-2,2.5-3.3,5.6-3.7,9H20c-1.1,0-2,0.9-2,2s0.9,2,2,2h7.5c0.4,3.4,1.7,6.4,3.7,9l-5.3,5.3c-0.8,0.8-0.8,2,0,2.8
		c0.4,0.4,0.9,0.6,1.4,0.6s1-0.2,1.4-0.6l5.3-5.3c2.5,2,5.6,3.3,9,3.7V70c0,1.1,0.9,2,2,2s2-0.9,2-2v-7.5c3.4-0.4,6.4-1.7,9-3.7
		l5.3,5.3c0.4,0.4,0.9,0.6,1.4,0.6s1-0.2,1.4-0.6c0.8-0.8,0.8-2,0-2.8L58.8,56c2-2.5,3.3-5.6,3.7-9H70c1.1,0,2-0.9,2-2
		S71.1,43,70,43z M45,58.6c-7.5,0-13.6-6.1-13.6-13.6c0-7.5,6.1-13.6,13.6-13.6S58.6,37.5,58.6,45S52.5,58.6,45,58.6z"/>
	<path d="M45,0C20.2,0,0,20.2,0,45s20.2,45,45,45s45-20.2,45-45S69.8,0,45,0z M45,86C22.4,86,4,67.6,4,45S22.4,4,45,4s41,18.4,41,41
		S67.6,86,45,86z"/>
</g>
</svg>
