<?xml version="1.0" encoding="utf-8"?>
<!-- Generator: Adobe Illustrator 27.0.0, SVG Export Plug-In . SVG Version: 6.00 Build 0)  -->
<svg version="1.1" id="Layer_1" xmlns="http://www.w3.org/2000/svg" xmlns:xlink="http://www.w3.org/1999/xlink" x="0px" y="0px"
	 viewBox="0 0 800 800" style="enable-background:new 0 0 800 800;" xml:space="preserve">
<style type="text/css">
	.st0{fill:none;stroke:#D0D7E3;stroke-width:50;stroke-linecap:round;stroke-linejoin:round;stroke-miterlimit:6.25;}
</style>
<path class="st0" d="M668.2,549.1c-40.1-49.1-68.5-74.1-68.5-209.5c0-124-63.3-168.2-115.4-189.6c-6.9-2.8-13.4-9.4-15.5-16.5
	C459.7,102.4,434.1,75,400,75s-59.7,27.4-68.8,58.5c-2.1,7.2-8.6,13.6-15.5,16.5c-52.2,21.5-115.4,65.5-115.4,189.6
	C200.2,475,171.9,500,131.8,549.1c-16.6,20.3-2.1,50.9,27,50.9h482.6C670.3,600,684.8,569.4,668.2,549.1z"/>
<path class="st0" d="M500,600v25c0,55.2-44.8,100-100,100s-100-44.8-100-100v-25"/>
</svg>
