<?xml version="1.0" encoding="utf-8"?>
<!-- Generator: Adobe Illustrator 27.0.0, SVG Export Plug-In . SVG Version: 6.00 Build 0)  -->
<svg version="1.1" id="Layer_1" xmlns="http://www.w3.org/2000/svg" xmlns:xlink="http://www.w3.org/1999/xlink" x="0px" y="0px"
	 viewBox="0 0 800 800" style="enable-background:new 0 0 800 800;" xml:space="preserve">
<style type="text/css">
	.st0{fill:#A6B6C9;}
</style>
<g>
	<path class="st0" d="M400,50c-27.6,0-50,22.4-50,50c0,2.3,0.2,4.6,0.5,6.9c-94.3,24-157.6,112.5-149.7,209.6v161.8
		c0,18-1.7,34.5-5.1,49.5c-2.9,13.9-9,26.9-17.9,38c-8.6,11.2-20,19.8-33.1,25c-13.6,6-30.6,8.9-50.9,9v0.2H706v-0.2
		c-20.3-0.1-37.3-3-50.8-9c-13.1-5.2-24.6-13.8-33.2-25c-8.8-11.1-14.8-24.2-17.7-38c-3.5-16.2-5.2-32.8-5.1-49.5V315.8
		c0.5-5.2,0.8-10.5,0.8-15.8c-0.2-91.2-62.2-170.7-150.6-193.1c0.4-2.3,0.6-4.6,0.6-6.9C450,72.4,427.6,50,400,50z M400,150
		c82.8,0,150,67.2,150,150v250H250V300C250,217.2,317.2,150,400,150z M204.6,585.8l-0.8,1l0.3-0.6
		C204.2,586.1,204.5,586.1,204.6,585.8L204.6,585.8z M595.4,585.8c0.1,0.2,0.4,0.2,0.5,0.4c0.2,0.2,0.2,0.4,0.3,0.6L595.4,585.8z
		 M300,650c0,55.9,45.3,101.2,101.2,101.2S502.4,705.9,502.4,650H300z"/>
	<path d="M603.3,615.7l0.5,0.5c0.1,0.2,0.2,0.5,0.4,0.6L603.3,615.7z M196.4,615.8l-0.9,1.2l0.4-0.7L196.4,615.8L196.4,615.8z"/>
</g>
</svg>
