<?xml version="1.0" encoding="utf-8"?><!-- Uploaded to: SVG Repo, www.svgrepo.com, Generator: SVG Repo Mixer Tools -->
<svg fill="#000000" width="800px" height="800px" viewBox="0 0 1024 1024" xmlns="http://www.w3.org/2000/svg"><path d="M233.762 407.33v330.581c0 1.109-.171 2.176-.341 3.285.171 1.067.341 2.133.341 3.285 0 32.981-4.736 65.365-14.037 96.597h606.763c-9.301-31.232-14.037-63.616-14.037-96.597 0-1.195.171-2.347.341-3.499-.171-1.024-.299-2.048-.299-3.072V408.182c0-155.861-127.275-282.667-283.733-282.667h-12.117c-155.989 0-282.88 126.379-282.88 281.813zM498.509 68.77v16.384a318.48 318.48 0 0118.133-.512h12.117c8.747 0 17.365.427 25.899 1.109V68.77c0-15.36-12.587-27.904-28.075-27.904S498.508 53.41 498.508 68.77zm375.594 785.152c4.181 10.496-.981 22.4-11.477 26.539-2.432.981-4.992 1.493-7.509 1.493-.128 0-.256-.085-.427-.085s-.341.043-.512.043h-663.04l-.043.043c-1.323 0-2.645-.171-3.968-.427-.597-.128-1.152-.341-1.707-.512-.64-.213-1.237-.299-1.835-.555-.085-.043-.128-.085-.171-.085-.811-.299-1.579-.768-2.347-1.195-.427-.256-.896-.469-1.28-.725-.555-.341-1.067-.811-1.579-1.237-.469-.427-1.067-.768-1.493-1.237-.427-.427-.725-.853-1.067-1.237-.512-.597-1.024-1.152-1.451-1.792-.384-.555-.683-1.195-.981-1.792-.299-.555-.64-1.067-.896-1.621-.256-.597-.384-1.237-.597-1.835-.171-.64-.469-1.323-.597-1.963-.085-.469-.128-1.024-.171-1.536-.128-.811-.256-1.664-.299-2.517v-.213c0-.512.128-.981.171-1.493.043-.768.085-1.536.213-2.347.171-.768.427-1.579.683-2.347.128-.427.213-.896.384-1.365 13.781-34.816 20.779-71.637 20.779-109.44 0-1.152.171-2.219.341-3.285-.171-1.109-.341-2.176-.341-3.285V407.333c0-157.824 114.304-289.493 264.747-317.227V68.773c0-37.931 30.933-68.779 68.949-68.779s68.949 30.848 68.949 68.779v22.784c147.072 30.763 257.792 161.024 257.792 316.629v329.728c0 1.152-.128 2.347-.341 3.499.171.981.341 2.005.341 3.072 0 37.803 6.997 74.624 20.779 109.44zM614.43 900.975c11.264 0 20.437 9.173 20.437 20.437 0 55.168-45.056 100.096-100.395 100.096S434.077 976.58 434.077 921.412c0-11.264 9.173-20.437 20.437-20.437 11.307 0 20.437 9.173 20.437 20.437 0 32.683 26.709 59.264 59.52 59.264s59.52-26.581 59.52-59.264c0-11.264 9.131-20.437 20.437-20.437z"/></svg>