<?xml version="1.0" encoding="utf-8"?>
<!-- Generator: Adobe Illustrator 27.0.0, SVG Export Plug-In . SVG Version: 6.00 Build 0)  -->
<svg version="1.1" id="Layer_1" xmlns="http://www.w3.org/2000/svg" xmlns:xlink="http://www.w3.org/1999/xlink" x="0px" y="0px"
	 viewBox="0 0 800 800" style="enable-background:new 0 0 800 800;" xml:space="preserve">
<style type="text/css">
	.st0{fill:#D0D7E3;}
</style>
<path class="st0" d="M800,319.4c0-140.9-107-257.8-245.8-271.4c-5-17.3-21-29.9-39.8-29.9H285.6c-18.9,0-34.8,12.7-39.8,29.9
	C107,61.7,0,178.6,0,319.4v217.7C0,583.4,37.6,621,83.9,621h65.3c19.4,0,35.2-15.8,35.2-35.2V354.4c0-19.4-15.8-35.2-35.2-35.2H83.9
	c-20.8,0-39.8,7.6-54.5,20.2v-19.9c0-125.5,95.2-229.7,218.7-242.1c6.7,14,20.9,23.8,37.5,23.8h228.8c16.5,0,30.8-9.7,37.5-23.8
	c123.6,12.3,218.7,116.5,218.7,242.1v19.9c-14.7-12.6-33.7-20.2-54.5-20.2h-65.3c-19.4,0-35.2,15.8-35.2,35.2v231.4
	c0,19.4,15.8,35.2,35.2,35.2h65.3c20.8,0,39.8-7.6,54.5-20.2v10.7c0,55.5-45.2,100.7-100.7,100.7H491.9
	c-6.4-23.2-27.7-40.2-52.9-40.2h-53.6c-30.3,0-54.9,24.6-54.9,54.9s24.6,54.9,54.9,54.9H439c25.2,0,46.4-17,52.9-40.2h178.1
	c71.7,0,130.1-58.3,130.1-130.1L800,319.4L800,319.4z M155,354.4v231.4c0,3.2-2.6,5.8-5.8,5.8h-5.8V348.6h5.8
	C152.4,348.6,155,351.2,155,354.4L155,354.4z M83.9,348.6h30v243.1h-30c-30,0-54.5-24.4-54.5-54.5V403.1
	C29.4,373,53.8,348.6,83.9,348.6z M514.4,71.8H285.6c-6.7,0-12.1-5.4-12.1-12.1s5.4-12.1,12.1-12.1h228.8c6.7,0,12.1,5.4,12.1,12.1
	S521.1,71.8,514.4,71.8z M645,585.8V354.4c0-3.2,2.6-5.8,5.8-5.8h5.8v243.1h-5.8C647.6,591.7,645,589,645,585.8z M439,752.4h-53.6
	c-14.1,0-25.5-11.4-25.5-25.5c0-14.1,11.4-25.5,25.5-25.5H439c14.1,0,25.5,11.4,25.5,25.5C464.5,741,453.1,752.4,439,752.4z
	 M716.1,591.7h-30V348.6h30c30,0,54.5,24.4,54.5,54.5v134.1C770.6,567.2,746.2,591.7,716.1,591.7z"/>
</svg>
